<svg class="border shadow-md" viewBox="0 0 901.12 450.56" style="width: 901.12px; height: 450.56px;" xmlns="http://www.w3.org/2000/svg" preserveAspectRatio="none"><rect class="bg" id="bg" x="0" y="0" width="901.12" height="450.56" fill="#e0eff1"/><g transform="translate(-281.6 -281.6)"><path d="M464.5,382.5Q398,483,294.5,460.5Q191,438,118,360Q45,282,107.5,185Q170,88,289.5,74.5Q409,61,470,171.5Q531,282,464.5,382.5Z" fill="#7DB4B5" stroke="none" stroke-width="10"/></g><g transform="translate(-281.6 168.95999999999998)"><path d="M439.5,363Q375,444,263.5,475Q152,506,85,394Q18,282,88,175Q158,68,264,98Q370,128,437,205Q504,282,439.5,363Z" fill="#7DB4B5" stroke="none" stroke-width="10"/></g><g transform="translate(619.52 -281.6)"><path d="M444,360.5Q372,439,277.5,445.5Q183,452,121.5,367Q60,282,120,193.5Q180,105,281,106.5Q382,108,449,195Q516,282,444,360.5Z" fill="#7DB4B5" stroke="none" stroke-width="10"/></g><g transform="translate(619.52 168.95999999999998)"><path d="M432.5,386.5Q403,491,279,496.5Q155,502,89.5,392Q24,282,100,190Q176,98,278,104.5Q380,111,421,196.5Q462,282,432.5,386.5Z" fill="#7DB4B5" stroke="none" stroke-width="10"/></g></svg>